# xmcd
#
# Track frame offsets:
#	150
#	12724
#	26758
#	40139
#	52631
#	65744
#	75174
#	86814
#	102768
#	117115
#
# Disc length: 1692 seconds
#
# Revision: 1
# Processed by: cddbd v1.5.2PL0 Copyright (c) Steve Scherf et al.
# Submitted via: audiograbber 1.83.01
#
DISCID=73069a0a
DTITLE=Willie Nelson - The Words Don't Fit The Picture
DYEAR=1972
DGENRE=Country
TTITLE0=The Words Don't Fit The Picture
TTITLE1=Good Hearted Woman
TTITLE2=Stay Away From Lonely Places
TTITLE3=Country Willie
TTITLE4=London
TTITLE5=One Step Beyond
TTITLE6=My Kind Of Girl
TTITLE7=Will You Remember?
TTITLE8=Rainy Day Blues
TTITLE9=If You Really Loved Me
EXTD=
EXTT0=
EXTT1=
EXTT2=
EXTT3=
EXTT4=
EXTT5=
EXTT6=
EXTT7=
EXTT8=
EXTT9=
PLAYORDER=
